<mxfile host="app.diagrams.net" agent="Mozilla/5.0 (Windows NT 10.0; Win64; x64) AppleWebKit/537.36 (KHTML, like Gecko) Chrome/134.0.0.0 Safari/537.36 Edg/134.0.0.0" version="26.2.2">
  <diagram name="Page-1" id="dZrzWRRkYuBXU612skJu">
    <mxGraphModel dx="1420" dy="752" grid="1" gridSize="10" guides="1" tooltips="1" connect="1" arrows="1" fold="1" page="1" pageScale="1" pageWidth="1169" pageHeight="827" math="0" shadow="0">
      <root>
        <mxCell id="0" />
        <mxCell id="1" parent="0" />
        <mxCell id="yAJnpsYMiDPARpTlDaQF-33" value="" style="group" vertex="1" connectable="0" parent="1">
          <mxGeometry x="70" y="60" width="810" height="569.12" as="geometry" />
        </mxCell>
        <mxCell id="yAJnpsYMiDPARpTlDaQF-1" value="" style="image;sketch=0;aspect=fixed;html=1;points=[];align=center;fontSize=12;image=img/lib/mscae/Data_Lake.svg;" vertex="1" parent="yAJnpsYMiDPARpTlDaQF-33">
          <mxGeometry x="160" y="190" width="38" height="50" as="geometry" />
        </mxCell>
        <mxCell id="yAJnpsYMiDPARpTlDaQF-5" value="" style="edgeStyle=orthogonalEdgeStyle;rounded=0;orthogonalLoop=1;jettySize=auto;html=1;" edge="1" parent="yAJnpsYMiDPARpTlDaQF-33" source="yAJnpsYMiDPARpTlDaQF-2" target="yAJnpsYMiDPARpTlDaQF-1">
          <mxGeometry relative="1" as="geometry" />
        </mxCell>
        <mxCell id="yAJnpsYMiDPARpTlDaQF-2" value="update EPC every 6 months" style="image;aspect=fixed;html=1;points=[];align=center;fontSize=12;image=img/lib/azure2/other/Azure_Monitor_Pipeline.svg;" vertex="1" parent="yAJnpsYMiDPARpTlDaQF-33">
          <mxGeometry y="60" width="68" height="49.120000000000005" as="geometry" />
        </mxCell>
        <mxCell id="yAJnpsYMiDPARpTlDaQF-6" value="" style="edgeStyle=orthogonalEdgeStyle;rounded=0;orthogonalLoop=1;jettySize=auto;html=1;" edge="1" parent="yAJnpsYMiDPARpTlDaQF-33" source="yAJnpsYMiDPARpTlDaQF-4" target="yAJnpsYMiDPARpTlDaQF-1">
          <mxGeometry relative="1" as="geometry" />
        </mxCell>
        <mxCell id="yAJnpsYMiDPARpTlDaQF-4" value="daily update readings" style="image;aspect=fixed;html=1;points=[];align=center;fontSize=12;image=img/lib/azure2/other/Azure_Monitor_Pipeline.svg;" vertex="1" parent="yAJnpsYMiDPARpTlDaQF-33">
          <mxGeometry y="320" width="68" height="49.120000000000005" as="geometry" />
        </mxCell>
        <mxCell id="yAJnpsYMiDPARpTlDaQF-10" value="" style="edgeStyle=orthogonalEdgeStyle;rounded=0;orthogonalLoop=1;jettySize=auto;html=1;" edge="1" parent="yAJnpsYMiDPARpTlDaQF-33" source="yAJnpsYMiDPARpTlDaQF-7" target="yAJnpsYMiDPARpTlDaQF-1">
          <mxGeometry relative="1" as="geometry" />
        </mxCell>
        <mxCell id="yAJnpsYMiDPARpTlDaQF-7" value="daily update events" style="image;aspect=fixed;html=1;points=[];align=center;fontSize=12;image=img/lib/azure2/other/Azure_Monitor_Pipeline.svg;" vertex="1" parent="yAJnpsYMiDPARpTlDaQF-33">
          <mxGeometry y="190" width="68" height="49.120000000000005" as="geometry" />
        </mxCell>
        <mxCell id="yAJnpsYMiDPARpTlDaQF-15" value="" style="edgeStyle=orthogonalEdgeStyle;rounded=0;orthogonalLoop=1;jettySize=auto;html=1;" edge="1" parent="yAJnpsYMiDPARpTlDaQF-33" source="yAJnpsYMiDPARpTlDaQF-11" target="yAJnpsYMiDPARpTlDaQF-4">
          <mxGeometry relative="1" as="geometry" />
        </mxCell>
        <mxCell id="yAJnpsYMiDPARpTlDaQF-11" value="" style="image;sketch=0;aspect=fixed;html=1;points=[];align=center;fontSize=12;image=img/lib/mscae/Data_Lake.svg;" vertex="1" parent="yAJnpsYMiDPARpTlDaQF-33">
          <mxGeometry x="15" y="420" width="38" height="50" as="geometry" />
        </mxCell>
        <mxCell id="yAJnpsYMiDPARpTlDaQF-14" value="" style="edgeStyle=orthogonalEdgeStyle;rounded=0;orthogonalLoop=1;jettySize=auto;html=1;" edge="1" parent="yAJnpsYMiDPARpTlDaQF-33" source="yAJnpsYMiDPARpTlDaQF-12" target="yAJnpsYMiDPARpTlDaQF-11">
          <mxGeometry relative="1" as="geometry" />
        </mxCell>
        <mxCell id="yAJnpsYMiDPARpTlDaQF-12" value="update property list every 2 months" style="image;aspect=fixed;html=1;points=[];align=center;fontSize=12;image=img/lib/azure2/other/Azure_Monitor_Pipeline.svg;" vertex="1" parent="yAJnpsYMiDPARpTlDaQF-33">
          <mxGeometry y="520" width="68" height="49.120000000000005" as="geometry" />
        </mxCell>
        <mxCell id="yAJnpsYMiDPARpTlDaQF-13" value="BH asset&lt;br&gt;&amp;amp; repairs" style="shape=image;html=1;verticalAlign=top;verticalLabelPosition=bottom;labelBackgroundColor=#ffffff;imageAspect=0;aspect=fixed;image=https://cdn3.iconfinder.com/data/icons/document-icons-2/30/647702-excel-128.png" vertex="1" parent="yAJnpsYMiDPARpTlDaQF-33">
          <mxGeometry x="220" width="40" height="40" as="geometry" />
        </mxCell>
        <mxCell id="yAJnpsYMiDPARpTlDaQF-21" value="" style="edgeStyle=orthogonalEdgeStyle;rounded=0;orthogonalLoop=1;jettySize=auto;html=1;" edge="1" parent="yAJnpsYMiDPARpTlDaQF-33" source="yAJnpsYMiDPARpTlDaQF-16" target="yAJnpsYMiDPARpTlDaQF-20">
          <mxGeometry relative="1" as="geometry" />
        </mxCell>
        <mxCell id="yAJnpsYMiDPARpTlDaQF-16" value="&lt;font style=&quot;color: rgb(0, 0, 0);&quot;&gt;pre-process&lt;/font&gt;" style="sketch=0;outlineConnect=0;fillColor=#76608a;strokeColor=#432D57;dashed=0;verticalLabelPosition=bottom;verticalAlign=top;align=center;html=1;fontSize=12;fontStyle=0;aspect=fixed;pointerEvents=1;shape=mxgraph.aws4.sagemaker_notebook;fontColor=#ffffff;" vertex="1" parent="yAJnpsYMiDPARpTlDaQF-33">
          <mxGeometry x="270" y="183" width="38.36" height="44" as="geometry" />
        </mxCell>
        <mxCell id="yAJnpsYMiDPARpTlDaQF-17" style="edgeStyle=orthogonalEdgeStyle;rounded=0;orthogonalLoop=1;jettySize=auto;html=1;entryX=0.921;entryY=0.58;entryDx=0;entryDy=0;entryPerimeter=0;" edge="1" parent="yAJnpsYMiDPARpTlDaQF-33" source="yAJnpsYMiDPARpTlDaQF-13" target="yAJnpsYMiDPARpTlDaQF-1">
          <mxGeometry relative="1" as="geometry" />
        </mxCell>
        <mxCell id="yAJnpsYMiDPARpTlDaQF-18" value="" style="strokeWidth=1;html=1;shape=mxgraph.flowchart.annotation_2;align=left;labelPosition=right;pointerEvents=1;" vertex="1" parent="yAJnpsYMiDPARpTlDaQF-33">
          <mxGeometry x="198" y="101.06" width="50" height="230" as="geometry" />
        </mxCell>
        <mxCell id="yAJnpsYMiDPARpTlDaQF-29" value="" style="edgeStyle=orthogonalEdgeStyle;rounded=0;orthogonalLoop=1;jettySize=auto;html=1;" edge="1" parent="yAJnpsYMiDPARpTlDaQF-33" source="yAJnpsYMiDPARpTlDaQF-19" target="yAJnpsYMiDPARpTlDaQF-28">
          <mxGeometry relative="1" as="geometry" />
        </mxCell>
        <mxCell id="yAJnpsYMiDPARpTlDaQF-19" value="" style="sketch=0;outlineConnect=0;fillColor=#6d8764;strokeColor=#3A5431;dashed=0;verticalLabelPosition=bottom;verticalAlign=top;align=center;html=1;fontSize=12;fontStyle=0;aspect=fixed;pointerEvents=1;shape=mxgraph.aws4.sagemaker_notebook;fontColor=#ffffff;" vertex="1" parent="yAJnpsYMiDPARpTlDaQF-33">
          <mxGeometry x="485" y="183" width="38.36" height="44" as="geometry" />
        </mxCell>
        <mxCell id="yAJnpsYMiDPARpTlDaQF-22" value="" style="edgeStyle=orthogonalEdgeStyle;rounded=0;orthogonalLoop=1;jettySize=auto;html=1;" edge="1" parent="yAJnpsYMiDPARpTlDaQF-33" source="yAJnpsYMiDPARpTlDaQF-20" target="yAJnpsYMiDPARpTlDaQF-19">
          <mxGeometry relative="1" as="geometry" />
        </mxCell>
        <mxCell id="yAJnpsYMiDPARpTlDaQF-20" value="" style="image;sketch=0;aspect=fixed;html=1;points=[];align=center;fontSize=12;image=img/lib/mscae/Data_Lake.svg;" vertex="1" parent="yAJnpsYMiDPARpTlDaQF-33">
          <mxGeometry x="380" y="180" width="38" height="50" as="geometry" />
        </mxCell>
        <mxCell id="yAJnpsYMiDPARpTlDaQF-23" value="" style="strokeWidth=1;html=1;shape=mxgraph.flowchart.annotation_1;align=left;pointerEvents=1;flipH=1;" vertex="1" parent="yAJnpsYMiDPARpTlDaQF-33">
          <mxGeometry x="780" y="101.06" width="30" height="227.88" as="geometry" />
        </mxCell>
        <mxCell id="yAJnpsYMiDPARpTlDaQF-24" value="&lt;font style=&quot;color: rgb(255, 255, 255);&quot;&gt;- pull in all the data&lt;/font&gt;&lt;div&gt;&lt;div&gt;&lt;font style=&quot;color: rgb(255, 255, 255);&quot;&gt;- create new features: dew point, rolling average&lt;/font&gt;&lt;/div&gt;&lt;div&gt;&lt;font style=&quot;color: rgb(255, 255, 255);&quot;&gt;- aggregate them into list of properties with features and target&lt;/font&gt;&lt;/div&gt;&lt;div&gt;&lt;span style=&quot;background-color: transparent;&quot;&gt;&lt;font style=&quot;color: rgb(255, 255, 255);&quot;&gt;- handle missing values&lt;/font&gt;&lt;/span&gt;&lt;/div&gt;&lt;/div&gt;" style="text;html=1;align=left;verticalAlign=middle;resizable=0;points=[];autosize=1;strokeColor=none;fillColor=#76608a;fontColor=#ffffff;" vertex="1" parent="yAJnpsYMiDPARpTlDaQF-33">
          <mxGeometry x="242" y="106.5" width="350" height="70" as="geometry" />
        </mxCell>
        <mxCell id="yAJnpsYMiDPARpTlDaQF-27" value="- feature &amp;amp; target + test &amp;amp; train split&lt;div&gt;- model training&lt;/div&gt;&lt;div&gt;- model evaluation&lt;/div&gt;" style="text;html=1;align=left;verticalAlign=middle;resizable=0;points=[];autosize=1;strokeColor=none;fillColor=#6d8764;fontColor=#ffffff;" vertex="1" parent="yAJnpsYMiDPARpTlDaQF-33">
          <mxGeometry x="480" y="239.12" width="210" height="60" as="geometry" />
        </mxCell>
        <mxCell id="yAJnpsYMiDPARpTlDaQF-31" value="" style="edgeStyle=orthogonalEdgeStyle;rounded=0;orthogonalLoop=1;jettySize=auto;html=1;" edge="1" parent="yAJnpsYMiDPARpTlDaQF-33" source="yAJnpsYMiDPARpTlDaQF-28" target="yAJnpsYMiDPARpTlDaQF-30">
          <mxGeometry relative="1" as="geometry" />
        </mxCell>
        <mxCell id="yAJnpsYMiDPARpTlDaQF-28" value="" style="image;sketch=0;aspect=fixed;html=1;points=[];align=center;fontSize=12;image=img/lib/mscae/Data_Lake.svg;" vertex="1" parent="yAJnpsYMiDPARpTlDaQF-33">
          <mxGeometry x="630" y="180" width="38" height="50" as="geometry" />
        </mxCell>
        <mxCell id="yAJnpsYMiDPARpTlDaQF-30" value="" style="image;aspect=fixed;html=1;points=[];align=center;fontSize=12;image=img/lib/azure2/power_platform/PowerBI.svg;" vertex="1" parent="yAJnpsYMiDPARpTlDaQF-33">
          <mxGeometry x="760" y="177.5" width="41.25" height="55" as="geometry" />
        </mxCell>
      </root>
    </mxGraphModel>
  </diagram>
</mxfile>
